# xmcd CD database file
# Copyright (C) 1993-1996 Ti Kan
#
# Track frame offsets:
# 150
# 10735
# 21850
# 32532
# 41712
# 50875
# 67132
# 77817
# 87685
# 98182
# 107505
#
# Disc length: 1586 seconds
#
# Revision: 1
# Processed by: cddbd v1.4PL0 Copyright (c) Steve Scherf et al.
# Submitted via: Gronk 1.4
#
DISCID=8f06300b
DTITLE=Buck Owens - All Time Greatest Hits Vol. 3
DYEAR=1900
DGENRE=country
TTITLE0=Waitin' In Your Welfare Line
TTITLE1=My Heart Skips A Beat
TTITLE2=Only You (Can Break My Heart)
TTITLE3=Sam's Place
TTITLE4=Buckaroo
TTITLE5=Sweet Rosie Jones
TTITLE6=Under The Influence of Love
TTITLE7=I Don't Care
TTITLE8=Rollin' In My Sweet Baby's Arms
TTITLE9=It Takes People Like You
TTITLE10=I've Got You On My Mind Again
EXTD=
EXTT0=
EXTT1=
EXTT2=
EXTT3=
EXTT4=
EXTT5=
EXTT6=
EXTT7=
EXTT8=
EXTT9=
EXTT10=
PLAYORDER=
